<svg width="324" height="62" viewBox="0 0 324 62" fill="none" xmlns="http://www.w3.org/2000/svg">
<path d="M220.243 46.155L220.243 0.950801H229.988V8.83878C233.237 2.43888 238.241 0.0406494 244.036 0.0406494H247.547V9.42132H243.597C235.871 9.42132 230.339 12.6651 230.339 23.5362V46.155H220.243Z" fill="#121212"/>
<path d="M175.244 61.875V53.6558H182.264C186.545 53.6558 187.572 52.3715 188.942 48.3476L190.323 44.9038L173.457 0.0406494H184.159L195.546 34.4586L206.933 0.0406494H217.549L198.703 50.4024C196.305 56.9948 193.394 61.875 185.346 61.875H175.244Z" fill="#121212"/>
<path d="M162.566 44.9413V39.7187C158.713 44.4276 153.919 45.9687 148.439 45.9687C138.679 45.9687 132.258 41.1742 132.258 32.6125C132.258 24.7358 137.909 20.7974 149.039 18.8282L162.224 16.431V14.2124C162.224 9.93153 159.57 7.79112 153.748 7.79112C148.696 7.79112 144.159 9.7603 143.902 15.0685H134.141C134.398 4.45207 143.302 0 153.662 0C165.991 0 171.898 5.05139 171.898 13.185V44.9413H162.566ZM142.361 32.27C142.361 35.9516 144.843 38.4344 150.323 38.4344C156.23 38.4344 162.224 35.2666 162.224 27.5611V23.3659L150.837 25.6776C145.528 26.7906 142.361 27.9892 142.361 32.27Z" fill="#121212"/>
<path d="M85.6365 0.950822H95.14V7.42237C98.2222 2.88469 102.931 0.144958 109.438 0.144958C122.537 0.144958 129.643 9.41049 129.643 22.6811C129.643 35.9517 122.537 45.9688 109.438 45.9688C103.188 45.9688 98.5646 43.4003 95.4824 39.2051L95.4821 61.931H85.6362L85.6365 0.950822ZM95.3112 22.6811C95.3112 31.4996 99.164 37.5784 107.383 37.5784C115.688 37.5784 119.541 31.4996 119.541 22.6811C119.541 13.8626 115.688 8.53539 107.383 8.53539C99.164 8.53539 95.3112 13.8626 95.3112 22.6811Z" fill="#121212"/>
<path d="M62.4322 45.9689C50.9596 45.9689 43.0829 41.4312 42.3979 30.301H52.0726C52.7576 36.551 56.4391 38.6058 62.6891 38.6058C68.2542 38.6058 71.8501 36.551 71.8501 32.9551C71.8501 29.6161 70.5658 28.075 61.148 26.5339C47.3637 24.2222 43.511 20.4174 43.511 13.2256C43.511 5.00642 50.7884 0.0406494 61.4048 0.0406494C73.8193 0.0406494 80.4974 5.77697 80.6686 15.1092H71.3364C71.0795 8.94478 66.6275 7.40368 61.4048 7.40368C56.7815 7.40368 53.2713 9.37287 53.2713 12.8831C53.2713 16.3078 55.3261 17.0304 64.3158 18.4859C77.8432 20.7976 81.696 24.9072 81.696 32.3558C81.696 41.1743 73.648 45.9689 62.4322 45.9689Z" fill="#121212"/>
<path d="M30.3083 44.9413V39.7187C26.4555 44.4276 21.661 45.9687 16.1815 45.9687C6.42125 45.9687 0 41.1742 0 32.6125C0 24.7358 5.6507 20.7974 16.7809 18.8282L29.9658 16.431V14.2124C29.9658 9.93153 27.3117 7.79112 21.4898 7.79112C16.4384 7.79112 11.9007 9.7603 11.6439 15.0685H1.88357C2.14042 4.45207 11.0445 0 21.4042 0C33.733 0 39.6405 5.05139 39.6405 13.185V44.9413H30.3083ZM10.1028 32.27C10.1028 35.9516 12.5856 38.4344 18.0651 38.4344C23.9727 38.4344 29.9658 35.2666 29.9658 27.5611V23.3659L18.5788 25.6776C13.2706 26.7906 10.1028 27.9892 10.1028 32.27Z" fill="#121212"/>
<path d="M300.565 0.0406492C307.98 34.2141 308.71 9.46666 300.566 46.155L279.099 46.155C287.87 10.3388 286.902 35.0165 279.099 0.0406486L300.565 0.0406492Z" fill="#121212"/>
<path d="M318.164 0.0406492C325.576 34.2141 326.306 9.46666 318.164 46.155L308.831 46.155C317.598 10.3388 316.631 35.0165 308.831 0.0406489L318.164 0.0406492Z" fill="#121212"/>
</svg>
